<?xml version="1.0" encoding="UTF-8" standalone="no"?>
<!-- Created with Inkscape (http://www.inkscape.org/) -->

<svg
   width="209.8418"
   height="304.09763"
   viewBox="0 0 55.520639 80.459202"
   version="1.1"
   id="svg1"
   xml:space="preserve"
   xmlns="http://www.w3.org/2000/svg"
   xmlns:svg="http://www.w3.org/2000/svg"><defs
     id="defs1" /><path
     id="path1"
     d="M 27.748694,-3.8516167e-8 C 21.750712,-3.8516167e-8 16.888891,4.8613028 16.888891,10.859285 c 0,2.385708 0.773479,4.584616 2.072225,6.375839 -0.431773,-1.083987 -0.67541,-2.263114 -0.67541,-3.503146 0,-5.2482279 4.254034,-9.4939935 9.502262,-9.4939935 5.240329,0 9.493994,4.2457656 9.493994,9.4939935 0,0.876006 -0.118366,1.712672 -0.347266,2.517676 -0.01575,0.0789 -0.03939,0.157581 -0.06304,0.24443 -0.0079,0.02365 -0.01602,0.04766 -0.01602,0.07131 -0.04735,0.142052 -0.102509,0.284131 -0.149861,0.434082 -0.03359,0.08635 -0.07006,0.172647 -0.10542,0.258899 0.351841,-0.573905 0.680462,-1.143276 0.942061,-1.687752 0.0789,-0.165702 0.166073,-0.323258 0.213424,-0.481108 0.071,-0.15785 0.133738,-0.307754 0.196888,-0.465604 0,-0.01575 0.0082,-0.03174 0.01602,-0.04754 0.05525,-0.157802 0.110263,-0.323625 0.157614,-0.489376 0.0237,-0.04735 0.03179,-0.09476 0.04754,-0.14211 0.292001,-0.970706 0.441833,-2.012294 0.441833,-3.0856 C 38.615734,4.8613028 33.754532,-3.8516167e-8 27.748698,-3.8516167e-8 Z M 10.867554,16.88114 C 4.8617194,16.88114 -3.5809621e-7,21.742443 -3.5809621e-7,27.740425 -3.5809621e-7,33.74626 4.8617194,38.599711 10.867554,38.599711 c 1.480637,0 2.884076,-0.304028 4.167187,-0.838709 -0.649531,0.140861 -1.32069,0.223243 -2.012797,0.223243 -5.2403294,0 -9.4939942,-4.253665 -9.4939942,-9.493994 0,-5.24818 4.2536656,-9.502262 9.4939942,-9.502262 0.939155,0 1.846754,0.134504 2.69906,0.387055 0.0395,0.0158 0.07874,0.02352 0.126091,0.03928 0.276203,0.07895 0.568631,0.181443 0.876432,0.323494 0.142051,0.05525 0.276011,0.1186 0.418062,0.189652 0.197301,0.0947 0.394543,0.196975 0.583944,0.307475 3.180469,1.71256 6.968805,5.169312 7.276558,5.453414 l 0.02377,0.01602 -0.252697,-0.441834 c -0.359527,-0.395069 -1.049394,-1.175975 -1.841749,-2.152323 -1.705078,-1.455338 -4.431055,-3.642437 -6.894669,-4.91908 -0.2052,-0.1105 -0.402662,-0.213291 -0.599963,-0.307991 -0.465604,-0.220952 -0.91532,-0.40213 -1.341521,-0.51263 -0.03945,-0.0237 -0.09476,-0.03179 -0.142109,-0.04754 -0.978606,-0.292002 -2.012294,-0.441833 -3.0856,-0.441833 z m 33.793802,0 c -0.986505,0 -1.949633,0.133988 -2.857189,0.38654 -0.04735,0.0079 -0.102364,0.02347 -0.157614,0.03927 -0.339352,0.0789 -0.702636,0.205286 -1.089339,0.371036 -0.03945,0.0078 -0.0787,0.02384 -0.12609,0.04754 -0.149903,0.0631 -0.315874,0.141757 -0.481625,0.220659 -0.14995,0.07895 -0.315654,0.158144 -0.465604,0.244946 -2.173561,1.130058 -4.548338,2.973432 -6.267835,4.400764 -1.096832,1.399027 -2.106172,2.541684 -2.484603,2.96261 0.812904,-0.733954 4.679926,-4.167038 7.718392,-5.627047 0.142051,-0.07105 0.284279,-0.134399 0.426331,-0.189652 0.142051,-0.06315 0.284279,-0.11838 0.42633,-0.173633 0.149951,-0.04735 0.291983,-0.102508 0.434082,-0.149861 0.02365,0 0.04715,-0.0081 0.0708,-0.01602 0.0868,-0.0237 0.166042,-0.04724 0.244947,-0.06305 0.805004,-0.228852 1.641153,-0.347265 2.517159,-0.347265 5.248228,0 9.49451,4.254081 9.49451,9.502262 0,5.240328 -4.246282,9.493994 -9.49451,9.493994 -0.73205,0 -1.440897,-0.09102 -2.124419,-0.24753 1.297602,0.549929 2.719558,0.862996 4.216281,0.862996 5.997934,0 10.859285,-4.853451 10.859285,-10.859285 0,-6.005882 -4.861351,-10.859285 -10.859285,-10.859285 z M 30.021423,31.252356 c 0.0028,0.0077 0.0064,0.0151 0.0093,0.02274 -7.27e-4,-0.0062 -0.0013,-0.01249 -0.0021,-0.0186 z m -16.967956,18.89342 c -1.325905,1.531058 -2.185913,2.407088 -2.185913,2.407088 12.059018,11.987968 16.88114,27.906304 16.88114,27.906304 0,0 4.821974,-15.918336 16.888892,-27.906304 0,0 -0.84183,-0.872937 -2.119251,-2.338358 -10.522709,10.477301 -14.730367,24.365437 -14.730367,24.365437 0,0 -4.214366,-13.913767 -14.766024,-24.394376 0,0 0.03348,-0.03657 0.03411,-0.03721 -7.89e-4,-9.47e-4 -0.0017,-0.0017 -0.0026,-0.0026 z"
     style="display:inline;fill:#d4af1e;fill-opacity:1;stroke-width:0.789204" /><path
     id="path141"
     class="st0"
     d="m 27.787968,4.2379845 c -5.248228,0 -9.502262,4.2457656 -9.502262,9.4939935 0,2.296564 0.813001,4.395799 2.17041,6.037358 l 0.02377,0.02377 c 1.538958,2.351813 3.575076,4.680229 4.293279,5.469433 0.15785,0.181501 0.252697,0.283703 0.252697,0.283703 0,0 -0.09485,-0.102202 -0.252697,-0.283703 l 0.252697,0.441834 -0.02377,-0.01602 c -0.307753,-0.284103 -4.096089,-3.740854 -7.276558,-5.453414 -0.189401,-0.110501 -0.386643,-0.212775 -0.583944,-0.307475 -0.142051,-0.07105 -0.276011,-0.134402 -0.418062,-0.189652 -0.307801,-0.142052 -0.600229,-0.244545 -0.876432,-0.323494 -0.04735,-0.01575 -0.08659,-0.02348 -0.126091,-0.03928 -0.852306,-0.252552 -1.759905,-0.387056 -2.69906,-0.387056 -5.2403286,0 -9.4939942,4.254082 -9.4939942,9.502262 0,5.240329 4.2536648,9.493994 9.4939942,9.493994 2.312363,0 4.427174,-0.828725 6.076632,-2.201932 1.744159,-1.144357 3.47279,-2.557173 4.569747,-3.50418 l 1.878438,-1.025777 C 21.77439,41.267361 13.021945,50.185566 13.021945,50.185566 c 10.551658,10.480609 14.766024,24.394376 14.766024,24.394376 0,0 4.214465,-13.913767 14.758272,-24.394376 0,0 -8.752444,-8.918205 -12.524817,-18.933211 l 1.933733,1.0573 c 1.104905,0.947055 2.83297,2.359971 4.569229,3.496427 l 0.0077,0.0077 c 1.641511,1.357409 3.740794,2.17041 6.037357,2.17041 5.248228,0 9.494511,-4.253665 9.494511,-9.493994 0,-5.24818 -4.246283,-9.502262 -9.494511,-9.502262 -0.876006,0 -1.712154,0.118413 -2.517159,0.347265 -0.0789,0.0158 -0.158146,0.03935 -0.244947,0.06305 -0.02365,0.0079 -0.04715,0.01602 -0.0708,0.01602 -0.142099,0.04735 -0.284132,0.10251 -0.434082,0.149861 -0.142051,0.05525 -0.28428,0.110482 -0.426331,0.173633 -0.142051,0.05525 -0.284279,0.118602 -0.42633,0.189652 -3.038466,1.460008 -6.905489,4.893092 -7.718392,5.627047 0.773404,-0.860254 4.159434,-4.688123 5.611543,-7.702889 0.07105,-0.142051 0.133887,-0.28428 0.189136,-0.426331 0.06311,-0.142051 0.118383,-0.283762 0.173633,-0.425813 0.04735,-0.149952 0.102512,-0.292031 0.149862,-0.434082 0,-0.02365 0.0081,-0.04766 0.01602,-0.07131 0.02365,-0.08685 0.04729,-0.165529 0.06304,-0.24443 0.2289,-0.805004 0.347266,-1.64167 0.347266,-2.517676 0,-5.2482277 -4.253665,-9.4939934 -9.493994,-9.4939934 z"
     style="display:inline;fill-opacity:0;stroke:#d4af1e;stroke-width:0.6;stroke-dasharray:none;stroke-opacity:0.882353" /><path
     id="circle12"
     d="m 30.486909,52.973414 a 2.6941805,2.6941805 0 0 1 -2.694181,2.69418 2.6941805,2.6941805 0 0 1 -2.694181,-2.69418 2.6941805,2.6941805 0 0 1 2.694181,-2.69418 2.6941805,2.6941805 0 0 1 2.694181,2.69418 z"
     style="display:inline;fill:#d4af1e;fill-opacity:1;stroke-width:0.789204" /><style
     type="text/css"
     id="style1">
	.st0{fill:#D4AF1E;}
</style><style
     type="text/css"
     id="style1-2">
	.st0{fill:#D4AF1E;}
</style></svg>
