<?xml version="1.0" encoding="UTF-8" standalone="no"?>
<!-- Created with Inkscape (http://www.inkscape.org/) -->

<svg
   width="3809.1323"
   height="600.25177"
   viewBox="0 0 1007.8329 158.81666"
   version="1.1"
   id="svg1"
   xml:space="preserve"
   xmlns="http://www.w3.org/2000/svg"
   xmlns:svg="http://www.w3.org/2000/svg"><defs
     id="defs1" /><g
     id="layer1"
     transform="translate(-3.1750215,-13.195855)"><rect
       style="display:none;opacity:0.410891;fill:#d4af1e;stroke:#000000;stroke-width:0.465;stroke-linecap:square;stroke-linejoin:round;stroke-dashoffset:2.00315"
       id="rect1"
       width="409.04584"
       height="111.91875"
       x="134.14375"
       y="134.54062" /><g
       id="g2"
       transform="translate(-205.25573,-149.46611)"><g
         id="g8"
         transform="matrix(4.3424244,0,0,4.3424244,-750.0907,-751.65494)"
         style="stroke-width:0.230286"><path
           style="font-size:28.3003px;font-family:Brandy;-inkscape-font-specification:'Brandy, Normal';fill:#d4af1e;stroke:#000000;stroke-width:0;stroke-linejoin:round;stroke-dasharray:none;stroke-opacity:1"
           d="m 260.03768,226.08183 h 7.13167 v 12.79174 h -7.81088 q -4.13184,0 -7.04678,-2.91493 -2.91493,-2.91493 -2.91493,-7.01848 0,-4.13184 2.91493,-7.04677 2.91494,-2.91493 7.04678,-2.91493 h 9.8202 l -2.03762,5.68836 h -7.78258 q -1.78292,0 -3.02813,1.24521 -1.24522,1.24521 -1.24522,3.02813 0,1.75462 1.24522,2.99984 1.24521,1.24521 3.02813,1.24521 h 2.12252 v -1.41502 h -3.48093 z m 27.08339,-7.10337 h 2.06592 l -0.93391,2.57532 -1.10371,3.11304 h -5.00915 v 14.20675 h -5.68836 v -14.20675 h -7.49958 l 0.93391,-2.57533 1.10371,-3.11303 h 0.4811 z m 4.04695,2.49042 q 3.05644,-3.05643 7.35808,-3.05643 4.32995,0 7.38638,3.05643 3.05643,3.02814 3.05643,7.35808 0,4.32995 -3.05643,7.38638 -3.05643,3.05643 -7.38638,3.05643 -4.30164,0 -7.35808,-3.05643 -3.05643,-3.05643 -3.05643,-7.38638 0,-4.32994 3.05643,-7.35808 z m 7.35808,11.82953 q 1.86782,0 3.16964,-1.30181 1.33011,-1.33012 1.33011,-3.16964 0,-1.83952 -1.33011,-3.14133 -1.30182,-1.33012 -3.16964,-1.33012 -1.83952,0 -3.14133,1.33012 -1.30182,1.30181 -1.30182,3.14133 0,1.83952 1.30182,3.16964 1.30181,1.30181 3.14133,1.30181 z"
           id="text1"
           aria-label="GTO" /><path
           style="font-size:28.3003px;font-family:Brandy;-inkscape-font-specification:'Brandy, Normal';fill:#d4af1e;stroke:#000000;stroke-width:0;stroke-linecap:square;stroke-linejoin:round;stroke-dasharray:none;stroke-opacity:1"
           d="m 327.7084,233.1003 h 9.2259 l -1.49991,4.18845 -0.53771,1.49991 h -7.18828 q -4.10354,0 -7.01847,-2.88663 l -0.0283,-0.0283 q -2.91493,-2.91493 -2.91493,-7.01847 0,-4.13185 2.91493,-7.04678 0.1981,-0.1981 0.3962,-0.3962 2.80173,-2.51873 6.65057,-2.51873 h 9.59381 l -2.03763,5.68836 h -7.55618 q -1.78292,0 -3.02813,1.24521 -1.24521,1.24522 -1.24521,3.02814 0,1.75462 1.24521,2.99983 1.24521,1.24521 3.02813,1.24521 z m 16.5274,0 h 10.55601 l -2.03762,5.68836 h -14.20675 v -19.89511 h 16.24437 l -2.03762,5.68836 h -8.51839 v 1.41502 h 6.16947 l -2.03763,5.68836 h -4.13184 z m 24.67787,-14.20675 h 5.68836 v 19.89511 h -5.68836 l -7.10337,-9.9334 v 9.9334 h -5.68837 v -19.89511 h 5.68837 l 7.10337,9.96171 z m 24.84766,0 h 2.06592 l -0.93391,2.57533 -1.10371,3.11303 h -5.00915 v 14.20675 h -5.68837 v -14.20675 h -7.49957 l 0.93391,-2.57533 1.10371,-3.11303 h 0.4811 z m 17.40469,13.92375 5.97136,5.97136 h -7.13167 l -5.68836,-5.68836 v 5.68836 h -5.66006 v -11.37672 h 9.9334 q 1.41502,0 1.41502,-1.41501 0,-1.41502 -1.41502,-1.41502 h -13.01814 l 0.93391,-2.60363 1.10371,-3.08473 h 10.98052 q 7.10338,0 7.10338,7.10338 0,5.68836 -4.52805,6.82037 z m 20.20644,-13.92375 7.10338,19.89511 h -2.71683 -18.5933 l 2.03763,-5.68836 h 11.57482 l -1.01881,-2.83003 -1.92442,-5.40536 -1.95272,5.40536 -0.48111,1.41502 h -5.68836 l 4.55635,-12.79174 z m 13.72564,14.20675 h 7.72598 l -2.03762,5.68836 h -11.37672 v -19.89511 h 5.68836 z"
           id="text1-2"
           aria-label="CENTRAL" /></g><g
         id="g1"
         transform="matrix(1.9738784,0,0,1.9738784,132.66242,111.50644)"
         style="stroke-width:0.506617"><path
           id="path1"
           d="m 42.650282,6.0501365 c -7.600036,0 -13.760444,6.1597515 -13.760444,13.7597885 0,3.022928 0.980074,5.809161 2.625714,8.078818 -0.5471,-1.373518 -0.855812,-2.867589 -0.855812,-4.438832 0,-6.650024 5.390282,-12.029829 12.040306,-12.029829 6.640015,0 12.029829,5.379805 12.029829,12.029829 0,1.109986 -0.149981,2.170124 -0.44002,3.190144 -0.01996,0.09998 -0.04991,0.199671 -0.07988,0.309717 -0.01001,0.02997 -0.0203,0.06039 -0.0203,0.09036 -0.06,0.179993 -0.129889,0.360022 -0.189889,0.550025 -0.04256,0.109415 -0.08877,0.21876 -0.133578,0.32805 0.445818,-0.727195 0.862213,-1.448644 1.193685,-2.138549 0.09998,-0.209961 0.210431,-0.409599 0.270429,-0.609611 0.08997,-0.200012 0.169459,-0.389955 0.249476,-0.589967 0,-0.01996 0.01035,-0.04022 0.0203,-0.06024 0.07001,-0.199951 0.139714,-0.410065 0.199712,-0.620087 0.03003,-0.06 0.04028,-0.120071 0.06024,-0.180068 0.369995,-1.229981 0.559847,-2.549775 0.559847,-3.90976 0,-7.600037 -6.159624,-13.7597885 -13.76961,-13.7597885 z M 21.260208,27.440211 c -7.609986,0 -13.7702657,6.159751 -13.7702657,13.759788 0,7.609986 6.1602797,13.759789 13.7702657,13.759789 1.876114,0 3.65441,-0.385234 5.280238,-1.062727 -0.82302,0.178485 -1.673445,0.28287 -2.550413,0.28287 -6.640015,0 -12.029829,-5.389814 -12.029829,-12.029829 0,-6.649963 5.389815,-12.040306 12.029829,-12.040306 1.190003,0 2.34002,0.17043 3.419976,0.490438 0.05005,0.02002 0.09977,0.0298 0.15977,0.04977 0.349976,0.100037 0.720512,0.229906 1.110526,0.409899 0.179993,0.07001 0.349733,0.150278 0.529726,0.240308 0.25,0.119995 0.499925,0.249586 0.739915,0.389601 4.029968,2.169983 8.830165,6.550029 9.220119,6.910015 l 0.03012,0.0203 -0.320193,-0.559847 c -0.455556,-0.500592 -1.329686,-1.490077 -2.333677,-2.727207 -2.160503,-1.844057 -5.614586,-4.615327 -8.736228,-6.23296 -0.260009,-0.140015 -0.510213,-0.270261 -0.760213,-0.390256 -0.589966,-0.279968 -1.1598,-0.509538 -1.699839,-0.649553 -0.04999,-0.03003 -0.12007,-0.04028 -0.180067,-0.06024 -1.23999,-0.369995 -2.549775,-0.559846 -3.90976,-0.559846 z m 42.82009,0 c -1.25,0 -2.470379,0.169776 -3.620342,0.489784 -0.06,0.01001 -0.129705,0.02974 -0.199712,0.04976 -0.429993,0.09998 -0.89031,0.260118 -1.3803,0.47014 -0.04999,0.0099 -0.09972,0.03021 -0.159769,0.06024 -0.189942,0.07996 -0.400244,0.17962 -0.610266,0.279596 -0.190002,0.100037 -0.399965,0.200385 -0.589967,0.310371 -2.754116,1.431896 -5.763194,3.767633 -7.941966,5.576204 -1.389795,1.772705 -2.668729,3.220565 -3.148238,3.75392 1.030029,-0.929993 5.929929,-5.28005 9.779966,-7.130025 0.179993,-0.09003 0.36021,-0.170298 0.540203,-0.240308 0.179993,-0.08002 0.36021,-0.15 0.540203,-0.22001 0.190002,-0.06 0.369971,-0.129889 0.550025,-0.189889 0.02997,0 0.05974,-0.01029 0.08971,-0.0203 0.109985,-0.03003 0.210392,-0.05986 0.310372,-0.07989 1.02002,-0.289978 2.079503,-0.440019 3.189489,-0.440019 6.650024,0 12.030484,5.390342 12.030484,12.040306 0,6.640014 -5.38046,12.029829 -12.030484,12.029829 -0.927579,0 -1.825758,-0.115326 -2.691848,-0.313645 1.64419,0.696814 3.445949,1.093502 5.342444,1.093502 7.599976,0 13.759789,-6.149803 13.759789,-13.759789 0,-7.610046 -6.159813,-13.759788 -13.759789,-13.759788 z M 45.530055,45.649962 c 0.0036,0.0097 0.0081,0.01913 0.01179,0.02881 -9.21e-4,-0.0078 -0.0017,-0.01582 -0.0026,-0.02357 z M 24.029976,69.589794 c -1.680053,1.940002 -2.769768,3.050019 -2.769768,3.050019 15.279968,15.189941 21.390074,35.360047 21.390074,35.360047 0,0 6.109918,-20.170106 21.399896,-35.360047 0,0 -1.066681,-1.106098 -2.6853,-2.962931 C 48.031565,82.952658 42.700046,100.5503 42.700046,100.5503 c 0,0 -5.340018,-17.630119 -18.710013,-30.910087 0,0 0.04242,-0.04634 0.04322,-0.04715 -10e-4,-0.0012 -0.0022,-0.0021 -0.0033,-0.0033 z"
           style="display:inline;fill:#d4af1e;fill-opacity:1;stroke-width:0.506617"
           transform="matrix(0.78920438,0,0,0.78920438,32.474416,21.141455)" /><path
           id="path141"
           class="st0"
           d="m 42.700046,11.420082 c -6.650024,0 -12.040306,5.379805 -12.040306,12.029829 0,2.909973 1.030153,5.569912 2.750124,7.649929 l 0.03012,0.03012 c 1.950012,2.97998 4.529974,5.930313 5.440008,6.930313 0.200012,0.22998 0.320193,0.35948 0.320193,0.35948 0,0 -0.120181,-0.1295 -0.320193,-0.35948 l 0.320193,0.559847 -0.03012,-0.0203 c -0.389954,-0.359986 -5.190151,-4.740032 -9.220119,-6.910015 -0.23999,-0.140015 -0.489915,-0.269606 -0.739915,-0.389601 -0.179993,-0.09003 -0.349733,-0.170301 -0.529726,-0.240308 -0.390014,-0.179993 -0.76055,-0.309862 -1.110526,-0.409899 -0.06,-0.01996 -0.109721,-0.02975 -0.15977,-0.04977 -1.079956,-0.320008 -2.229973,-0.490438 -3.419976,-0.490438 -6.640014,0 -12.029829,5.390343 -12.029829,12.040306 0,6.640015 5.389814,12.029829 12.029829,12.029829 2.929993,0 5.609668,-1.050076 7.699694,-2.790066 2.210022,-1.450013 4.400368,-3.240191 5.790321,-4.440142 l 2.380167,-1.299761 C 35.080247,58.339966 23.990033,69.640213 23.990033,69.640213 37.360028,82.920181 42.700046,100.5503 42.700046,100.5503 c 0,0 5.340144,-17.630119 18.70019,-30.910087 0,0 -11.090212,-11.300248 -15.870181,-23.990251 l 2.45023,1.339704 c 1.400024,1.200013 3.589653,2.990317 5.789666,4.430319 l 0.0098,0.0098 c 2.079957,1.719971 4.739956,2.750124 7.649929,2.750124 6.650024,0 12.030484,-5.389815 12.030484,-12.029829 0,-6.649964 -5.38046,-12.040306 -12.030484,-12.040306 -1.109986,0 -2.169469,0.150041 -3.189489,0.440019 -0.09998,0.02002 -0.200387,0.04986 -0.310372,0.07989 -0.02997,0.01001 -0.05974,0.0203 -0.08971,0.0203 -0.180054,0.06 -0.360023,0.129891 -0.550025,0.189889 -0.179993,0.07001 -0.36021,0.139992 -0.540203,0.22001 -0.179993,0.07001 -0.36021,0.150281 -0.540203,0.240308 -3.850037,1.849975 -8.749937,6.200032 -9.779966,7.130025 0.97998,-1.090027 5.270415,-5.940315 7.110381,-9.760322 0.09003,-0.179993 0.169647,-0.360211 0.239654,-0.540203 0.07996,-0.179993 0.150003,-0.359555 0.22001,-0.539548 0.06,-0.190003 0.129892,-0.370032 0.189889,-0.550025 0,-0.02997 0.01029,-0.06039 0.0203,-0.09036 0.02997,-0.110046 0.05992,-0.209742 0.07988,-0.309717 0.290039,-1.02002 0.44002,-2.080158 0.44002,-3.190144 0,-6.650024 -5.389814,-12.029829 -12.029829,-12.029829 z"
           style="display:inline;fill:#000000;fill-opacity:0;stroke:#d4af1e;stroke-width:0.38516;stroke-dasharray:none;stroke-opacity:1"
           transform="matrix(0.78920438,0,0,0.78920438,32.474416,21.141455)" /><path
           id="circle12"
           d="m 46.119871,73.172691 a 3.4137931,3.4137931 0 0 1 -3.413793,3.413793 3.4137931,3.4137931 0 0 1 -3.413794,-3.413793 3.4137931,3.4137931 0 0 1 3.413794,-3.413793 3.4137931,3.4137931 0 0 1 3.413793,3.413793 z"
           style="display:inline;fill:#d4af1e;fill-opacity:1;stroke-width:0.506617"
           transform="matrix(0.78920438,0,0,0.78920438,32.474416,21.141455)" /></g></g></g><style
     type="text/css"
     id="style1">
	.st0{fill:#D4AF1E;}
</style><style
     type="text/css"
     id="style1-2">
	.st0{fill:#D4AF1E;}
</style><style
     type="text/css"
     id="style1-5">
	.st0{fill:#D4AF1E;}
</style><style
     type="text/css"
     id="style1-2-0">
	.st0{fill:#D4AF1E;}
</style></svg>
